<svg xmlns="http://www.w3.org/2000/svg" width="250" height="43" viewBox="0 0 250 43"><path d="M20.74,15.22a2.3,2.3,0,0,0-1.24-.36h-.34c-1.55.06-2.32,1.14-2.32,3.23V29.63h-6.1V18.09q0-8.31,8.42-8.74h.34a10.21,10.21,0,0,1,1.24.12Z" fill="#0F6C4C"/><path d="M43.18,15.64A10,10,0,0,1,44,19.75v.17a.78.78,0,0,1,0,.21l0,.33H41.61v0H28.51a4.81,4.81,0,0,0,1.39,2.76,4.78,4.78,0,0,0,6.86,0l0,0,.05-.08.06-.06,0,0,3.27,4.68a11.39,11.39,0,0,1-2.85,1.73,11,11,0,0,1-4,.77,10.69,10.69,0,0,1-5.27-1.36,10.32,10.32,0,0,1-3.95-3.75,9.9,9.9,0,0,1-1.48-5.35,9.67,9.67,0,0,1,.86-4.11,10.16,10.16,0,0,1,2.36-3.32,10.52,10.52,0,0,1,3.42-2.19,11.29,11.29,0,0,1,4.06-.76,11.14,11.14,0,0,1,4,.76,10.61,10.61,0,0,1,3.44,2.17A10,10,0,0,1,43.18,15.64Zm-9.85-.76a4.74,4.74,0,0,0-2.4.64A5.73,5.73,0,0,0,29.6,16.7h7.46a5.73,5.73,0,0,0-1.33-1.18A4.74,4.74,0,0,0,33.33,14.88Z" fill="#0F6C4C"/><path d="M67.19,19.94l0,10.32v1.41a8.78,8.78,0,0,1-2.66,6.42,8.66,8.66,0,0,1-3.32,2,11.38,11.38,0,0,1-3.84.69H56.28a9.73,9.73,0,0,1-6.91-2.65A7.76,7.76,0,0,1,47.27,35l5.81-3.37a3.83,3.83,0,0,0,3.83,3.6,3.81,3.81,0,0,0,2.19-.68,3.75,3.75,0,0,0,1.39-1.72l0-.07,0-.1.07-.26a2.72,2.72,0,0,0,.1-.46v-.06l0-.06v-.19h0v-2l-.15.07-.15.06a10.44,10.44,0,0,1-4,.78,10.24,10.24,0,0,1-5.2-1.39,10.49,10.49,0,0,1-5.35-9.22,10.2,10.2,0,0,1,.86-4.19,10.57,10.57,0,0,1,9.69-6.36,11.63,11.63,0,0,1,5.26.92Q67.19,12.63,67.19,19.94Zm-13.8,3.37a4.79,4.79,0,0,0,3.46,1.47,4.86,4.86,0,0,0,3.49-1.47,4.79,4.79,0,0,0,.8-5.92A5,5,0,0,0,56.85,15a4.8,4.8,0,0,0-2.42.65,5.09,5.09,0,0,0-1.84,1.79,4.62,4.62,0,0,0-.69,2.44A4.67,4.67,0,0,0,53.39,23.31Z" fill="#0F6C4C"/><path d="M85.36,29.06a9.13,9.13,0,0,1-.89.36,11.47,11.47,0,0,1-4.23.79,11.72,11.72,0,0,1-5.5-1.36,10.76,10.76,0,0,1-4.12-3.73,9.66,9.66,0,0,1-1.54-5.35A9.79,9.79,0,0,1,70,15.62a10.45,10.45,0,0,1,2.46-3.32A10.89,10.89,0,0,1,76,10.15a11.75,11.75,0,0,1,4.23-.78,12.26,12.26,0,0,1,4.23.76,10.91,10.91,0,0,1,3.58,2.17,10.44,10.44,0,0,1,2.47,3.32,9.64,9.64,0,0,1,.9,4.15l0,9.92-6-.06Zm-9.5-11.75a4.55,4.55,0,0,0-.71,2.46,4.64,4.64,0,0,0,1.53,3.48,5.12,5.12,0,0,0,7.14,0,4.66,4.66,0,0,0,1.52-3.48,4.54,4.54,0,0,0-.7-2.46,5.24,5.24,0,0,0-1.89-1.79,5.07,5.07,0,0,0-2.51-.64,5.14,5.14,0,0,0-2.5.64A5.29,5.29,0,0,0,75.86,17.31Z" fill="#0F6C4C"/><path d="M93.31,2.61l6.07,0v27l-6.07.07Z" fill="#0F6C4C"/><path d="M106.92,28.89a10.77,10.77,0,0,1-4.11-3.75,10.13,10.13,0,0,1-.65-9.52,10.38,10.38,0,0,1,2.46-3.33,10.89,10.89,0,0,1,3.6-2.19,11.95,11.95,0,0,1,8.44,0,10.6,10.6,0,0,1,3.59,2.17,10.2,10.2,0,0,1,2.46,3.35,9.64,9.64,0,0,1,.9,4.15,9.8,9.8,0,0,1-.88,4.15,10.41,10.41,0,0,1-2.48,3.37,11.12,11.12,0,0,1-3.59,2.19,11.81,11.81,0,0,1-9.74-.59Zm2-5.62a5.07,5.07,0,0,0,7.14,0,4.69,4.69,0,0,0,1.52-3.5,4.54,4.54,0,0,0-.7-2.46,5.24,5.24,0,0,0-1.89-1.79,5,5,0,0,0-2.51-.66,5.05,5.05,0,0,0-2.5.66,5.29,5.29,0,0,0-1.88,1.79,4.55,4.55,0,0,0-.71,2.46A4.66,4.66,0,0,0,108.87,23.27Z" fill="#0F6C4C"/><path d="M128.58,23.5A6,6,0,0,0,133,25.31c1.81,0,2.72-.53,2.72-1.6,0-.56-.5-1-1.5-1.24-.72-.16-1.84-.45-3.39-.85a6.68,6.68,0,0,1-3.18-1.83,5.57,5.57,0,0,1-1.28-4,5.85,5.85,0,0,1,1-3.54,6.19,6.19,0,0,1,2.76-2.13A10,10,0,0,1,134,9.37a8.89,8.89,0,0,1,2.36.33,10.66,10.66,0,0,1,2.32,1,9.77,9.77,0,0,1,2,1.41l-3.35,3.33a5.19,5.19,0,0,0-3.2-1.11c-1.38,0-2.07.39-2.07,1.16s.51,1.19,1.54,1.47,2.27.59,3.41.86a6.62,6.62,0,0,1,3.14,1.75,5.61,5.61,0,0,1,1.28,4.07,5.84,5.84,0,0,1-1.11,3.58,6.56,6.56,0,0,1-3,2.27,9.75,9.75,0,0,1-3.83.78,16,16,0,0,1-3-.26,9.37,9.37,0,0,1-2.49-.84,16.58,16.58,0,0,1-2.52-1.58Z" fill="#0F6C4C"/><path d="M159.26,15.22a2.3,2.3,0,0,0-1.24-.36h-.34c-1.55.06-2.32,1.14-2.32,3.23V29.63h-6.1V18.09q0-8.31,8.42-8.74H158a10,10,0,0,1,1.24.12Z" fill="#0F6C4C"/><path d="M177.43,29.06a9.13,9.13,0,0,1-.89.36,11.47,11.47,0,0,1-4.23.79,11.72,11.72,0,0,1-5.5-1.36,10.76,10.76,0,0,1-4.12-3.73,9.66,9.66,0,0,1-1.54-5.35,9.79,9.79,0,0,1,.89-4.15,10.45,10.45,0,0,1,2.46-3.32,10.89,10.89,0,0,1,3.58-2.15,11.75,11.75,0,0,1,4.23-.78,12.26,12.26,0,0,1,4.23.76,10.91,10.91,0,0,1,3.58,2.17,10.44,10.44,0,0,1,2.47,3.32,9.64,9.64,0,0,1,.9,4.15l0,9.92-6-.06Zm-9.5-11.75a4.55,4.55,0,0,0-.71,2.46,4.64,4.64,0,0,0,1.53,3.48,5.12,5.12,0,0,0,7.14,0,4.63,4.63,0,0,0,1.52-3.48,4.54,4.54,0,0,0-.7-2.46,5.24,5.24,0,0,0-1.89-1.79,5.07,5.07,0,0,0-2.51-.64,5.14,5.14,0,0,0-2.5.64A5.29,5.29,0,0,0,167.93,17.31Z" fill="#0F6C4C"/><path d="M195.37,15.22a2.27,2.27,0,0,0-1.23-.36h-.35c-1.55.06-2.32,1.14-2.32,3.23V29.63h-6.09V18.09q0-8.31,8.41-8.74h.35a10,10,0,0,1,1.23.12Z" fill="#0F6C4C"/><path d="M202.92,28.89a10.73,10.73,0,0,1-4.12-3.75,9.79,9.79,0,0,1-1.54-5.37,9.64,9.64,0,0,1,.9-4.15,10.21,10.21,0,0,1,2.45-3.33,11.09,11.09,0,0,1,3.6-2.19,11.95,11.95,0,0,1,8.44,0,10.74,10.74,0,0,1,3.6,2.17,10.31,10.31,0,0,1,2.45,3.35,9.64,9.64,0,0,1,.9,4.15,9.65,9.65,0,0,1-.88,4.15,10.52,10.52,0,0,1-2.47,3.37,11.17,11.17,0,0,1-3.6,2.19,11.78,11.78,0,0,1-9.73-.59Zm1.94-5.62a5.07,5.07,0,0,0,7.14,0,4.65,4.65,0,0,0,1.52-3.5,4.54,4.54,0,0,0-.7-2.46,5.24,5.24,0,0,0-1.89-1.79,5.06,5.06,0,0,0-5,0A5.24,5.24,0,0,0,204,17.31a4.54,4.54,0,0,0-.7,2.46A4.65,4.65,0,0,0,204.86,23.27Z" fill="#0F6C4C"/><path d="M224.57,23.5A6,6,0,0,0,229,25.31c1.82,0,2.72-.53,2.72-1.6,0-.56-.5-1-1.5-1.24-.71-.16-1.84-.45-3.39-.85a6.68,6.68,0,0,1-3.18-1.83,5.61,5.61,0,0,1-1.28-4,5.85,5.85,0,0,1,1-3.54,6.19,6.19,0,0,1,2.76-2.13A10,10,0,0,1,230,9.37a8.84,8.84,0,0,1,2.36.33,10.75,10.75,0,0,1,2.33,1,10.06,10.06,0,0,1,2,1.41l-3.36,3.33a5.16,5.16,0,0,0-3.19-1.11c-1.39,0-2.08.39-2.08,1.16s.51,1.19,1.54,1.47,2.27.59,3.41.86a6.58,6.58,0,0,1,3.14,1.75,5.61,5.61,0,0,1,1.28,4.07,5.84,5.84,0,0,1-1.11,3.58,6.51,6.51,0,0,1-2.95,2.27,9.7,9.7,0,0,1-3.82.78,15.85,15.85,0,0,1-3-.26,9.56,9.56,0,0,1-2.5-.84,16,16,0,0,1-2.51-1.58Z" fill="#0F6C4C"/></svg>